<svg width="121" height="41" viewBox="0 0 121 41" fill="none" xmlns="http://www.w3.org/2000/svg">
<path d="M110.845 0.774056H10.2456C9.87889 0.774056 9.51659 0.774056 9.15086 0.776056C8.84471 0.778056 8.541 0.783866 8.23186 0.788756C7.56039 0.79666 6.89051 0.855734 6.22802 0.965465C5.56644 1.07759 4.9256 1.28897 4.32715 1.59246C3.72943 1.89852 3.18327 2.29622 2.7085 2.77112C2.23123 3.24468 1.8334 3.79206 1.53028 4.3922C1.22634 4.99115 1.01558 5.63298 0.905287 6.29552C0.793948 6.95722 0.734036 7.62655 0.726087 8.29751C0.716807 8.60411 0.715827 8.91173 0.710938 9.21837V32.3326C0.715827 32.6431 0.716807 32.9439 0.726087 33.2545C0.734038 33.9254 0.793951 34.5947 0.905287 35.2563C1.01527 35.9193 1.22604 36.5615 1.53028 37.1606C1.83326 37.7588 2.23115 38.304 2.7085 38.7749C3.18147 39.2519 3.72798 39.6499 4.32715 39.9536C4.92559 40.2579 5.56637 40.4706 6.22802 40.5844C6.89064 40.6933 7.56047 40.7524 8.23191 40.7612C8.541 40.768 8.84471 40.7719 9.15091 40.7719C9.51658 40.7739 9.87891 40.7739 10.2456 40.7739H110.845C111.205 40.7739 111.57 40.7739 111.929 40.7719C112.234 40.7719 112.547 40.768 112.851 40.7612C113.521 40.7528 114.19 40.6937 114.851 40.5844C115.515 40.4698 116.158 40.2572 116.759 39.9536C117.358 39.6497 117.904 39.2518 118.377 38.7749C118.853 38.3022 119.251 37.7574 119.558 37.1606C119.86 36.561 120.069 35.9189 120.177 35.2563C120.289 34.5946 120.351 33.9254 120.363 33.2545C120.367 32.9439 120.367 32.6431 120.367 32.3326C120.375 31.9693 120.375 31.608 120.375 31.2388V10.3102C120.375 9.94395 120.375 9.58067 120.367 9.21837C120.367 8.91173 120.367 8.60411 120.363 8.29747C120.351 7.62646 120.289 6.95727 120.177 6.29548C120.069 5.63332 119.86 4.99155 119.558 4.39216C118.941 3.18924 117.962 2.21007 116.759 1.59237C116.158 1.28962 115.515 1.0783 114.851 0.965375C114.19 0.855158 113.521 0.796063 112.851 0.788616C112.547 0.783736 112.234 0.777876 111.929 0.775926C111.57 0.773926 111.205 0.773926 110.845 0.773926V0.774056Z" fill="black"/>
<path d="M9.15384 39.8988C8.84916 39.8988 8.55184 39.8949 8.24955 39.8881C7.62333 39.8799 6.99858 39.8254 6.38041 39.725C5.80401 39.6257 5.24562 39.4411 4.72368 39.1771C4.20652 38.9153 3.73484 38.5721 3.32669 38.1605C2.91263 37.7538 2.5679 37.2821 2.30618 36.764C2.04157 36.2426 1.85844 35.6837 1.76318 35.1068C1.66031 34.4869 1.60465 33.8601 1.59668 33.2318C1.59034 33.0209 1.58203 32.3187 1.58203 32.3187V9.21824C1.58203 9.21824 1.59088 8.52683 1.59673 8.3237C1.60436 7.69639 1.65969 7.07056 1.76226 6.45164C1.8577 5.87316 2.04097 5.31266 2.30572 4.78955C2.56648 4.27184 2.90929 3.79974 3.32086 3.39155C3.73196 2.97951 4.20516 2.63451 4.72319 2.36913C5.24393 2.10602 5.80126 1.92266 6.3765 1.8252C6.9967 1.72376 7.62362 1.66892 8.25201 1.66114L9.15433 1.64893H111.923L112.836 1.66163C113.458 1.66902 114.08 1.72338 114.694 1.82422C115.275 1.9229 115.838 2.10754 116.365 2.37206C117.403 2.90691 118.247 3.75308 118.78 4.79199C119.04 5.31149 119.221 5.86742 119.315 6.4409C119.419 7.0649 119.477 7.69564 119.489 8.3281C119.492 8.6113 119.492 8.9155 119.492 9.21824C119.5 9.59324 119.5 9.95017 119.5 10.31V31.2386C119.5 31.6019 119.5 31.9564 119.492 32.3138C119.492 32.639 119.492 32.9369 119.488 33.2435C119.476 33.8647 119.419 34.4842 119.317 35.097C119.224 35.6781 119.042 36.2413 118.777 36.767C118.513 37.2794 118.171 37.7471 117.761 38.1527C117.353 38.5665 116.88 38.9118 116.362 39.1752C115.837 39.4412 115.274 39.6265 114.694 39.725C114.076 39.826 113.451 39.8805 112.825 39.8881C112.532 39.8949 112.225 39.8988 111.927 39.8988L110.843 39.9008L9.15384 39.8988Z" fill="white"/>
<path d="M108.102 20.6636C108.114 19.7956 108.344 18.9446 108.773 18.1897C109.201 17.4348 109.814 16.8005 110.553 16.3459C110.083 15.675 109.464 15.1229 108.743 14.7334C108.023 14.3439 107.221 14.1278 106.403 14.1021C104.656 13.9188 102.964 15.1471 102.074 15.1471C101.167 15.1471 99.7965 14.1203 98.3212 14.1507C97.3669 14.1815 96.4369 14.459 95.6217 14.9562C94.8066 15.4533 94.1341 16.1531 93.6698 16.9874C91.6587 20.4694 93.1589 25.5867 95.0854 28.4013C96.0492 29.7796 97.1757 31.3191 98.6497 31.2645C100.092 31.2047 100.631 30.3447 102.372 30.3447C104.097 30.3447 104.602 31.2645 106.106 31.2298C107.654 31.2047 108.629 29.8454 109.559 28.4542C110.252 27.4721 110.785 26.3868 111.138 25.2383C110.239 24.858 109.472 24.2214 108.932 23.4078C108.392 22.5943 108.103 21.6399 108.102 20.6636Z" fill="black"/>
<path d="M105.263 12.251C106.107 11.2379 106.522 9.93576 106.422 8.62109C105.132 8.75651 103.942 9.3727 103.086 10.3469C102.668 10.8228 102.348 11.3765 102.144 11.9763C101.94 12.5761 101.856 13.2102 101.897 13.8424C102.542 13.849 103.18 13.7093 103.763 13.4336C104.346 13.1579 104.859 12.7536 105.263 12.251Z" fill="black"/>
<path d="M17.9101 27.9136H13.1767L12.04 31.27H10.0352L14.5185 18.8521H16.6015L21.0849 31.27H19.0459L17.9101 27.9136ZM13.667 26.3648H17.419L15.5694 20.9175H15.5176L13.667 26.3648Z" fill="black"/>
<path d="M30.7666 26.7438C30.7666 29.5573 29.2607 31.3649 26.9883 31.3649C26.4126 31.395 25.8401 31.2624 25.3363 30.9823C24.8325 30.7022 24.4178 30.2858 24.1396 29.7809H24.0966V34.2653H22.2383V22.2165H24.0371V23.7224H24.0713C24.3622 23.2199 24.7839 22.8057 25.2916 22.5239C25.7992 22.242 26.3737 22.1031 26.9541 22.1218C29.2519 22.1218 30.7666 23.9382 30.7666 26.7438ZM28.8564 26.7438C28.8564 24.9108 27.9092 23.7058 26.4638 23.7058C25.0439 23.7058 24.0889 24.9362 24.0889 26.7438C24.0889 28.5681 25.0439 29.7897 26.4638 29.7897C27.9092 29.7897 28.8564 28.5934 28.8564 26.7438H28.8564Z" fill="black"/>
<path d="M40.7319 26.7439C40.7319 29.5573 39.2256 31.3649 36.9531 31.3649C36.3775 31.395 35.805 31.2624 35.3012 30.9823C34.7974 30.7022 34.3827 30.2858 34.1045 29.7809H34.0615V34.2653H32.2031V22.2165H34.0019V23.7224H34.0361C34.3271 23.2199 34.7488 22.8057 35.2564 22.5239C35.7641 22.242 36.3386 22.1031 36.9189 22.1218C39.2168 22.1218 40.7319 23.9382 40.7319 26.7439ZM38.8213 26.7439C38.8213 24.9109 37.874 23.7058 36.4287 23.7058C35.0088 23.7058 34.0537 24.9362 34.0537 26.7439C34.0537 28.5681 35.0088 29.7897 36.4287 29.7897C37.874 29.7897 38.8213 28.5935 38.8213 26.7439Z" fill="black"/>
<path d="M47.3164 27.8101C47.4541 29.0415 48.6504 29.8501 50.2852 29.8501C51.8516 29.8501 52.9785 29.0415 52.9785 27.9311C52.9785 26.9673 52.2989 26.3901 50.6895 25.9946L49.0801 25.6069C46.7999 25.0561 45.7413 23.9897 45.7413 22.2593C45.7413 20.1167 47.6084 18.645 50.2588 18.645C52.8838 18.645 54.6826 20.1167 54.7432 22.2593H52.8672C52.7549 21.02 51.7305 20.272 50.2334 20.272C48.7364 20.272 47.7119 21.0288 47.7119 22.1304C47.7119 23.0083 48.3662 23.5249 49.9668 23.9204L51.335 24.2563C53.8828 24.8588 54.9404 25.8823 54.9404 27.6987C54.9404 30.0219 53.0908 31.477 50.1474 31.477C47.3935 31.477 45.5342 30.0561 45.4141 27.81L47.3164 27.8101Z" fill="black"/>
<path d="M58.9531 20.0737V22.2163H60.6748V23.688H58.9531V28.6792C58.9531 29.4546 59.2978 29.8159 60.0547 29.8159C60.2591 29.8123 60.4631 29.798 60.666 29.7729V31.2358C60.3257 31.2994 59.9799 31.3281 59.6338 31.3217C57.8008 31.3217 57.0859 30.6332 57.0859 28.8774V23.688H55.7695V22.2163H57.0859V20.0737H58.9531Z" fill="black"/>
<path d="M61.6719 26.7436C61.6719 23.895 63.3496 22.105 65.9659 22.105C68.5908 22.105 70.2608 23.895 70.2608 26.7436C70.2608 29.6001 68.5996 31.3823 65.9659 31.3823C63.333 31.3823 61.6719 29.6001 61.6719 26.7436ZM68.3672 26.7436C68.3672 24.7895 67.4717 23.6362 65.9658 23.6362C64.4599 23.6362 63.5644 24.7983 63.5644 26.7436C63.5644 28.7055 64.4599 29.8501 65.9658 29.8501C67.4717 29.8501 68.3672 28.7055 68.3672 26.7436Z" fill="black"/>
<path d="M71.793 22.2164H73.5654V23.7574H73.6084C73.7283 23.2761 74.0103 22.8508 74.4069 22.5529C74.8035 22.255 75.2905 22.1028 75.7862 22.1217C76.0003 22.1209 76.2139 22.1442 76.4229 22.191V23.9293C76.1525 23.8467 75.8705 23.8088 75.5879 23.817C75.3179 23.8061 75.0487 23.8537 74.7989 23.9565C74.5491 24.0594 74.3244 24.2152 74.1405 24.413C73.9565 24.6109 73.8175 24.8463 73.7331 25.103C73.6487 25.3596 73.6208 25.6315 73.6514 25.9V31.2701H71.793V22.2164Z" fill="black"/>
<path d="M84.9912 28.6108C84.7412 30.2544 83.1406 31.3823 81.0928 31.3823C78.459 31.3823 76.8242 29.6176 76.8242 26.7866C76.8242 23.9468 78.4678 22.105 81.0146 22.105C83.5195 22.105 85.0947 23.8257 85.0947 26.5708V27.2075H78.7002V27.3198C78.6707 27.653 78.7124 27.9887 78.8226 28.3045C78.9327 28.6203 79.1089 28.9091 79.3392 29.1517C79.5696 29.3942 79.8489 29.585 80.1586 29.7113C80.4684 29.8376 80.8015 29.8965 81.1357 29.8842C81.5749 29.9254 82.0156 29.8237 82.3923 29.5942C82.769 29.3648 83.0616 29.0199 83.2266 28.6108H84.9912ZM78.709 25.9087H83.2353C83.2512 25.6232 83.2107 25.3374 83.1162 25.0675C83.0216 24.7977 82.8748 24.5491 82.6842 24.336C82.4936 24.1229 82.2628 23.9494 82.0052 23.8255C81.7475 23.7016 81.4679 23.6296 81.1825 23.6137C81.1266 23.6106 81.0706 23.6096 81.0146 23.6108C80.7137 23.609 80.4153 23.6665 80.1365 23.7801C79.8577 23.8936 79.6041 24.0609 79.39 24.2725C79.1759 24.484 79.0056 24.7357 78.8887 25.0131C78.7719 25.2904 78.7108 25.5881 78.709 25.8891C78.709 25.8957 78.709 25.9022 78.709 25.9087Z" fill="black"/>
</svg>
