<svg width="150" height="151" viewBox="0 0 150 151" fill="none" xmlns="http://www.w3.org/2000/svg">
<rect x="20" y="18.834" width="50" height="50" rx="25" stroke="#006D8C" stroke-width="2"/>
<g clip-path="url(#clip0_5994_43369)">
<path d="M40.3333 38.0007C39.689 38.0007 39.1667 38.523 39.1667 39.1673C39.1667 39.8117 39.689 40.334 40.3333 40.334H49.6667C50.311 40.334 50.8333 39.8117 50.8333 39.1673C50.8333 38.523 50.311 38.0007 49.6667 38.0007H40.3333Z" fill="#006D8C"/>
<path d="M40.3333 42.6673C39.689 42.6673 39.1667 43.1897 39.1667 43.834C39.1667 44.4783 39.689 45.0007 40.3333 45.0007H49.6667C50.311 45.0007 50.8333 44.4783 50.8333 43.834C50.8333 43.1897 50.311 42.6673 49.6667 42.6673H40.3333Z" fill="#006D8C"/>
<path d="M40.3333 47.334C39.689 47.334 39.1667 47.8563 39.1667 48.5007C39.1667 49.145 39.689 49.6673 40.3333 49.6673H45C45.6443 49.6673 46.1667 49.145 46.1667 48.5007C46.1667 47.8563 45.6443 47.334 45 47.334H40.3333Z" fill="#006D8C"/>
<path fill-rule="evenodd" clip-rule="evenodd" d="M38 33.334H41.5C41.5 31.401 43.067 29.834 45 29.834C46.933 29.834 48.5 31.401 48.5 33.334H52C53.933 33.334 55.5 34.901 55.5 36.834V53.1673C55.5 55.1003 53.933 56.6673 52 56.6673H38C36.067 56.6673 34.5 55.1003 34.5 53.1673V36.834C34.5 34.901 36.067 33.334 38 33.334ZM45 32.1673C44.3557 32.1673 43.8333 32.6897 43.8333 33.334H46.1667C46.1667 32.6897 45.6443 32.1673 45 32.1673ZM38 35.6673C37.3557 35.6673 36.8333 36.1897 36.8333 36.834V53.1673C36.8333 53.8117 37.3557 54.334 38 54.334H52C52.6443 54.334 53.1667 53.8117 53.1667 53.1673V36.834C53.1667 36.1897 52.6443 35.6673 52 35.6673H38Z" fill="#006D8C"/>
</g>
<path d="M103.481 110.272H109.238C110.831 110.272 112.119 108.984 112.119 107.394V101.302H114.999V92.9958H40.1338V101.302H43.0136V107.394C43.0136 108.984 44.2997 110.272 45.8945 110.272H51.6483C53.2416 110.272 54.5301 108.984 54.5301 107.394V101.302H100.602V107.394C100.602 108.984 101.89 110.272 103.481 110.272ZM114.999 76.7317C114.999 76.7317 113.913 76.3722 111.974 75.831L102.718 51.13C102.718 51.13 83.4943 47.9316 77.5704 47.9316C77.019 47.9316 76.3523 47.9595 75.5967 48.0098C76.3318 49.7975 76.8275 51.7078 77.04 53.7026C77.2256 53.6972 77.4049 53.6938 77.5704 53.6938C82.0138 53.6938 94.0896 55.5621 98.4943 56.2659L105.082 73.8435C105.082 73.8435 87.6226 70.9744 77.5665 70.9744C75.4301 70.9744 72.9586 71.1048 70.3923 71.3085C66.6694 74.732 61.7068 76.8264 56.2626 76.8264C52.295 76.8264 48.4852 75.726 45.1594 73.631L43.6051 74.6455L43.1607 75.831C42.0123 76.1504 41.1732 76.4044 40.6711 76.5607L40.1328 76.9119V91.3976H114.998V76.7317H114.999ZM51.1638 88.1915C48.4818 88.1915 46.3106 86.0199 46.3106 83.3393C46.3106 80.6587 48.4813 78.4861 51.1638 78.4861C53.8414 78.4861 56.016 80.6583 56.016 83.3393C56.016 86.0194 53.8419 88.1915 51.1638 88.1915ZM103.969 88.1915C101.291 88.1915 99.1181 86.0199 99.1181 83.3393C99.1181 80.6587 101.291 78.4861 103.969 78.4861C106.651 78.4861 108.821 80.6583 108.821 83.3393C108.821 86.0194 106.651 88.1915 103.969 88.1915Z" fill="#272C2E"/>
<defs>
<clipPath id="clip0_5994_43369">
<rect width="28" height="28" fill="white" transform="translate(31 29.834)"/>
</clipPath>
</defs>
</svg>
