<svg width="150" height="151" viewBox="0 0 150 151" fill="none" xmlns="http://www.w3.org/2000/svg">
<g clip-path="url(#clip0_573_16598)">
<path d="M56.5419 65.8071C57.2811 65.8071 57.8182 65.7552 57.8406 65.7524C57.984 65.7372 58.1361 65.7284 58.2879 65.7284C60.0288 65.7284 61.5348 66.8027 62.1467 68.3551L65.0425 65.0283L60.2604 60.8652L55.9688 65.7959C56.1453 65.8027 56.3238 65.8071 56.5015 65.8071H56.5419ZM61.1458 65.4748C61.4713 65.1006 62.0392 65.0614 62.4138 65.3869C62.7881 65.7124 62.8272 66.2803 62.5017 66.655C62.1758 67.0292 61.6083 67.0683 61.2337 66.7428C60.8595 66.4169 60.8203 65.849 61.1458 65.4748ZM58.9996 63.6065C59.3251 63.2319 59.893 63.1932 60.2672 63.5187C60.6418 63.8442 60.681 64.4121 60.3551 64.7863C60.0296 65.1609 59.4617 65.2 59.0875 64.8741C58.7128 64.5487 58.6741 63.9807 58.9996 63.6065Z" fill="#0088AF"/>
<path d="M25.3599 64.3788C24.6706 63.8173 24.3707 63.3309 24.2145 62.9411C24.2141 62.9399 24.2137 62.9391 24.2133 62.9379C24.1071 62.6619 24.0596 62.3987 24.058 62.0868C24.0548 61.5353 24.2405 60.8028 24.6658 59.9993C25.0376 59.2832 25.5987 58.54 26.2262 57.8706C26.2489 57.8467 26.2697 57.8211 26.2924 57.7971V118.648C26.2924 121.375 28.5038 123.585 31.2299 123.585C33.9568 123.585 36.1682 121.375 36.1682 118.648V82.5958H38.0192V118.648C38.0192 121.375 40.2306 123.585 42.9567 123.585C45.684 123.585 47.895 121.375 47.895 118.648V70.4193C49.2444 71.7648 50.8475 72.3407 52.2601 72.6962C53.8688 73.0808 55.3816 73.1538 56.5454 73.157C57.7343 73.157 58.5506 73.068 58.6341 73.0596C60.3886 72.8671 61.6538 71.2888 61.4609 69.5347C61.2684 67.7803 59.6893 66.5155 57.9352 66.708C57.8629 66.7159 57.3026 66.7671 56.5454 66.7671C55.7051 66.7703 54.6124 66.6944 53.7578 66.4839C52.8803 66.2898 52.3819 65.924 52.3811 65.8765C51.8172 65.1899 51.3899 64.1184 51.1487 62.7258C50.772 60.6383 50.8679 58.0643 50.7696 55.732C50.6962 54.5446 50.6379 53.4152 50.1083 52.0821C49.8335 51.4247 49.3806 50.6591 48.5819 50.0445C47.7939 49.4207 46.7112 49.1056 45.8058 49.1227C45.6505 49.1227 45.4991 49.1375 45.3498 49.1587C45.1736 49.1275 44.9935 49.1088 44.8086 49.1088H29.3792C29.1372 49.1088 28.9036 49.1391 28.6771 49.1914C28.4031 49.2294 28.1423 49.2841 27.8891 49.3492C27.0065 49.576 26.2305 49.9538 25.4358 50.3912C23.6186 51.4459 21.831 52.9887 20.3498 54.9328C18.8957 56.8726 17.6899 59.2588 17.668 62.0872C17.6664 63.0617 17.8357 64.0781 18.194 65.0637C18.2143 65.128 18.2331 65.1927 18.2579 65.2566V65.2558C19.0582 67.329 20.6936 69.1154 22.9249 70.4597C23.6562 70.9022 24.4621 71.3043 25.334 71.6754V64.7706C25.3024 64.9595 25.314 64.7974 25.3599 64.3788ZM118.736 87.6619H123.443C124.746 87.6619 125.799 86.6091 125.799 85.3088V80.3274H128.153V73.536H66.9403V80.3274H69.295V85.3088C69.295 86.6091 70.3465 87.6619 71.6505 87.6619H76.3551C77.6579 87.6619 78.7114 86.6091 78.7114 85.3088V80.3274H116.382V85.3088C116.382 86.6091 117.435 87.6619 118.736 87.6619ZM128.153 60.2377C128.153 60.2377 127.266 59.9438 125.681 59.5013L118.112 39.3046C118.112 39.3046 102.394 36.6895 97.5502 36.6895C97.0994 36.6895 96.5542 36.7122 95.9364 36.7534C96.5374 38.2151 96.9428 39.777 97.1165 41.4081C97.2683 41.4037 97.4149 41.4009 97.5502 41.4009C101.183 41.4009 111.057 42.9285 114.659 43.504L120.045 57.8762C120.045 57.8762 105.769 55.5303 97.5471 55.5303C95.8002 55.5303 93.7794 55.6369 91.6811 55.8035C88.637 58.6027 84.5794 60.3152 80.128 60.3152C76.8839 60.3152 73.7688 59.4154 71.0494 57.7025L69.7786 58.532L69.4152 59.5013C68.4763 59.7625 67.7901 59.9701 67.3796 60.0979L66.9395 60.3851V72.2293H128.153V60.2377H128.153ZM75.9589 69.6078C73.766 69.6078 71.9908 67.8322 71.9908 65.6404C71.9908 63.4487 73.7656 61.6723 75.9589 61.6723C78.1483 61.6723 79.9263 63.4483 79.9263 65.6404C79.9263 67.8318 78.1487 69.6078 75.9589 69.6078ZM119.135 69.6078C116.945 69.6078 115.169 67.8322 115.169 65.6404C115.169 63.4487 116.945 61.6723 119.135 61.6723C121.328 61.6723 123.103 63.4483 123.103 65.6404C123.103 67.8318 121.328 69.6078 119.135 69.6078Z" fill="#005269"/>
<path d="M38.4937 32.4531C43.4563 32.4531 47.4796 36.4772 47.4796 41.439C47.4796 44.108 46.3158 46.5031 44.4691 48.1485H32.5179C30.6716 46.5031 29.5078 44.108 29.5078 41.439C29.5078 36.4772 33.5303 32.4531 38.4937 32.4531Z" fill="#003646"/>
<path d="M131.593 88.7822H53.6953V90.6461H131.593V88.7822Z" fill="#005269"/>
<path d="M71.0685 55.6695C73.6113 57.525 76.7416 58.6217 80.1299 58.6217C88.6317 58.6217 95.5237 51.7297 95.5237 43.2274C95.5237 34.726 88.6321 27.834 80.1303 27.834C71.6284 27.834 64.7364 34.726 64.7364 43.2274C64.7364 46.9392 66.0503 50.3443 68.2381 53.0029L63.6094 60.5391L71.0685 55.6695ZM66.5408 43.6228C66.5408 36.335 72.4483 30.4279 79.7353 30.4279C87.023 30.4279 92.9302 36.335 92.9302 43.6228C92.9302 50.9098 87.023 56.8173 79.7353 56.8173C72.4483 56.8173 66.5408 50.9098 66.5408 43.6228Z" fill="#0088AF"/>
</g>
<defs>
<clipPath id="clip0_573_16598">
<rect width="113.923" height="95.7506" fill="white" transform="translate(17.668 27.834)"/>
</clipPath>
</defs>
</svg>
