<svg width="262" height="243" viewBox="0 0 262 243" fill="none" xmlns="http://www.w3.org/2000/svg">
<circle cx="141.5" cy="121.334" r="102" stroke="#E4F3F6" stroke-width="19"/>
<circle cx="76" cy="166.834" r="75.5" stroke="#CCE7EF"/>
<path d="M205.058 118.734C191.685 118.734 180.844 122.389 180.844 126.896V136.613H229.273V126.896C229.273 122.389 218.432 118.734 205.058 118.734Z" fill="#001B23"/>
<path opacity="0.49" d="M205.058 118.734C191.685 118.734 180.844 122.389 180.844 126.896V136.613H229.273V126.896C229.273 122.389 218.432 118.734 205.058 118.734Z" fill="white"/>
<path opacity="0.49" d="M222.677 126.897V136.612H180.844V126.897C180.844 122.765 189.949 119.351 201.76 118.812C213.573 119.351 222.677 122.765 222.677 126.897Z" fill="white"/>
<path d="M229.273 231.03H230.086L229.273 135.752L228.468 136.566L229.042 203.12L200.354 203.608L199.775 136.559L198.97 136.566L199.549 203.622L182.231 203.917L181.649 136.559L180.844 135.759L181.656 231.03L182.455 231.023L182.238 204.724L199.556 204.429L199.775 231.03L200.581 231.023L200.361 204.416L229.049 203.927L229.273 231.03Z" fill="#003646"/>
<path d="M156.229 216.763C156.229 216.763 154.789 224.239 147.8 224.656C140.811 225.073 142.326 230.65 142.326 230.65H169.035V217.284L156.229 216.763Z" fill="#001B23"/>
<path d="M171.466 194.275C171.466 194.275 173.469 201.62 167.382 205.084C161.294 208.548 165.111 212.882 165.111 212.882L189.077 201.073L183.187 189.08L171.466 194.275Z" fill="#001B23"/>
<path d="M152.772 219.415L150.876 130.883C149.506 123.344 151.568 120.076 154.746 116.901C160.329 111.324 183.462 99.4528 183.462 99.4528L211.214 99.377C218.573 99.377 225.807 106.645 225.807 114.015C225.807 121.386 218.326 127.636 210.967 127.636L176.793 131.053L186.057 193.54L152.772 219.415Z" fill="#E6E6E6"/>
<path d="M186.053 193.541L182.406 168.94L163.93 180.229L168.309 208.06L186.053 193.541Z" fill="#D2D2D2"/>
<path d="M190.423 113.028C190.423 113.028 179.927 115.377 169.532 125.816C163.229 132.144 163.746 143.597 164.692 165.625L175.016 150.312L186.34 129.803L190.423 113.028Z" fill="#D2D2D2"/>
<path d="M230.635 99.3713L211.788 99.2822L211.781 99.5308H206.074C206.074 99.5308 191.778 112.706 180.269 121.008C171.897 127.047 166.79 132.804 166.348 139.079C165.271 154.376 153.121 219.612 153.121 219.612L171.407 222.385L187.454 144.423C187.454 144.423 212.544 132.836 218.348 128.805C223.813 125.009 227.673 123.541 229.482 119.398C232.605 112.242 230.635 99.3713 230.635 99.3713Z" fill="#E6E6E6"/>
<path d="M209.493 104.125L178.918 104.531L196.069 114.791L210.341 107.41C210.684 107.225 210.956 106.929 211.113 106.571C211.269 106.213 211.301 105.813 211.204 105.434C211.106 105.056 210.884 104.721 210.574 104.484C210.264 104.246 209.883 104.12 209.493 104.125V104.125Z" fill="#003646"/>
<path opacity="0.2" d="M209.493 104.125L178.918 104.531L196.069 114.791L210.341 107.41C210.684 107.225 210.956 106.929 211.113 106.571C211.269 106.213 211.301 105.813 211.204 105.434C211.106 105.056 210.884 104.721 210.574 104.484C210.264 104.246 209.883 104.12 209.493 104.125V104.125Z" fill="white"/>
<path d="M179.095 49.1865L170.447 77.2527L153.125 99.9685L163.244 111.603L183.852 88.5649C184.801 87.8134 185.544 86.832 186.01 85.7134L186.331 84.9351L198.234 56.088L179.095 49.1865Z" fill="#D2D2D2"/>
<path d="M192.418 19.3939C192.418 19.3939 188.934 16.7576 188.07 10.6941C187.402 5.99903 191.726 9.04073 191.726 9.04073C191.726 9.04073 191.277 5.65523 193.74 5.99122C196.203 6.32722 197.581 9.88355 197.581 9.88355" fill="#0C0C0C"/>
<path d="M206.465 6.38574C206.465 6.38574 218.684 7.69771 214.267 24.2817L213.186 24.3543L210.991 24.5017" fill="#0C0C0C"/>
<path d="M194.465 41.6002C194.519 41.5932 195.115 51.4998 206.605 50.637C214.56 50.0401 217.397 41.5862 217.579 41.5862C216.721 41.4035 215.661 41.1264 215.24 41.0315C214.322 40.8181 213.49 40.3297 212.856 39.6314C212.222 38.9331 211.815 38.0579 211.689 37.1222C211.457 35.718 211.851 28.5332 211.73 27.1123L199.52 29.8422C199.691 32.8433 200.885 39.8002 196.7 41.0315C196.003 41.2348 195.252 41.4232 194.465 41.6002Z" fill="#E98862"/>
<path d="M199.352 38.1892C199.543 37.5717 199.666 36.9351 199.719 36.2908C199.853 34.8205 199.826 33.3399 199.638 31.8755C202.12 31.5405 204.459 30.5148 206.388 28.915C206.615 29.7538 207.862 33.4188 207.516 34.2146C206.864 35.721 203.797 38.1892 199.352 38.1892Z" fill="#0C0C0C"/>
<path d="M201.869 36.2285C206.687 35.7956 212.453 32.7469 212.536 26.1968L212.611 20.2866C212.695 13.7367 209.327 8.38313 203.17 8.30457C197.013 8.22629 192.343 13.4774 192.26 20.0275L192.227 22.6439C192.231 23.5425 192.296 24.4398 192.422 25.3295C192.738 27.6833 193.228 31.262 194.823 33.6828C196.329 35.9683 198.791 36.5047 201.869 36.2285Z" fill="#E98862"/>
<path d="M199.637 30.2415C198.642 30.2867 197.651 30.0971 196.744 29.6882C196.707 29.6714 196.678 29.6408 196.663 29.6028C196.648 29.5649 196.649 29.5226 196.665 29.4852C196.681 29.4477 196.711 29.418 196.748 29.4024C196.786 29.3868 196.828 29.3865 196.866 29.4017C198.821 30.237 200.597 30.1148 202 29.0482C202.029 29.0258 202.058 29.0049 202.089 28.9855C202.124 28.9689 202.164 28.9661 202.201 28.9779C202.239 28.9896 202.27 29.0149 202.29 29.0487C202.309 29.0826 202.315 29.1225 202.306 29.1607C202.298 29.1988 202.275 29.2323 202.243 29.2545C202.232 29.2615 202.214 29.2758 202.19 29.2952C201.452 29.8582 200.563 30.1877 199.637 30.2415V30.2415Z" fill="#0C0C0C"/>
<path d="M199.682 31.7178C199.502 31.7288 199.322 31.7245 199.143 31.7048C199.123 31.7027 199.103 31.6966 199.085 31.6868C199.067 31.677 199.051 31.6638 199.038 31.6479C199.026 31.6321 199.016 31.6138 199.01 31.5942C199.004 31.5746 199.003 31.5541 199.005 31.5338C199.007 31.5134 199.013 31.4938 199.023 31.4758C199.033 31.4579 199.046 31.442 199.062 31.4292C199.077 31.4163 199.096 31.4068 199.115 31.401C199.135 31.3952 199.155 31.3933 199.176 31.3955C200.252 31.5098 200.765 31.0162 200.787 30.9949C200.816 30.9657 200.856 30.9493 200.897 30.9492C200.938 30.9492 200.978 30.9655 201.007 30.9947C201.036 31.0238 201.052 31.0634 201.052 31.1046C201.052 31.1459 201.036 31.1855 201.007 31.2147C200.637 31.5307 200.168 31.7085 199.682 31.7178Z" fill="#0C0C0C"/>
<path d="M194.294 23.9051C194.713 23.9051 195.052 23.565 195.052 23.1454C195.052 22.7259 194.713 22.3857 194.294 22.3857C193.875 22.3857 193.535 22.7259 193.535 23.1454C193.535 23.565 193.875 23.9051 194.294 23.9051Z" fill="#0C0C0C"/>
<path d="M201.704 23.4373C202.123 23.4373 202.462 23.0972 202.462 22.6777C202.462 22.2581 202.123 21.918 201.704 21.918C201.285 21.918 200.945 22.2581 200.945 22.6777C200.945 23.0972 201.285 23.4373 201.704 23.4373Z" fill="#0C0C0C"/>
<path d="M212.132 28.1882C214.003 28.2122 215.545 26.2263 215.57 24.3521C215.594 22.4779 214.089 21.425 212.218 21.4014L211.238 22.6447L210.523 28.1678L212.132 28.1882Z" fill="#E98862"/>
<path d="M210.264 25.1759C210.264 25.1759 209.632 15.9076 206.826 15.3352C204.957 14.954 200.425 17.6091 196.227 16.8072C194.391 16.4575 192.648 16.9116 192.471 17.7805C192.4 18.1246 191.256 13.1804 194.132 9.42931C196.422 6.44329 203.914 5.5986 207.323 6.5778C216.762 9.28997 212.597 21.8084 212.597 21.8084L212.176 25.0037L210.264 25.1759Z" fill="#0C0C0C"/>
<path d="M198.501 28.0543C198.497 28.0545 198.493 28.0545 198.489 28.0543C197.886 28.0484 196.875 27.9706 196.879 27.519C196.883 27.1445 197.947 23.1139 198.068 22.6555C198.079 22.616 198.104 22.5824 198.14 22.5619C198.175 22.5413 198.217 22.5357 198.256 22.5461C198.295 22.5566 198.329 22.5823 198.35 22.6176C198.37 22.6529 198.376 22.6949 198.365 22.7343C197.893 24.5195 197.189 27.2677 197.186 27.5227C197.244 27.6303 197.867 27.7412 198.491 27.7476C198.531 27.7485 198.568 27.7644 198.596 27.7922C198.624 27.82 198.641 27.8574 198.642 27.8969C198.643 27.9363 198.629 27.9747 198.603 28.0041C198.576 28.0335 198.54 28.0516 198.501 28.0548V28.0543Z" fill="#0C0C0C"/>
<path d="M196.442 19.0236C195.808 18.8489 195.139 18.8489 194.505 19.0236C194.194 19.1075 193.897 19.2377 193.624 19.4099C193.355 19.5786 193.107 19.7807 192.888 20.0114C192.848 20.0525 192.825 20.1076 192.824 20.1653C192.823 20.223 192.845 20.2787 192.884 20.321C192.923 20.3633 192.977 20.3888 193.034 20.3923C193.092 20.3957 193.149 20.3769 193.193 20.3396L193.206 20.3278C193.409 20.1397 193.635 19.978 193.878 19.8465C194.116 19.7156 194.373 19.6217 194.64 19.5678C195.164 19.4576 195.709 19.4882 196.218 19.6563L196.239 19.6639C196.323 19.6908 196.413 19.6841 196.492 19.6451C196.57 19.6062 196.63 19.5382 196.66 19.4555C196.689 19.3728 196.685 19.282 196.648 19.2023C196.611 19.1227 196.545 19.0605 196.463 19.029L196.442 19.0236Z" fill="#0C0C0C"/>
<path d="M200.927 19.4058C201.41 19.1711 201.945 19.0682 202.48 19.1075C202.751 19.1251 203.018 19.1839 203.272 19.2818C203.53 19.3799 203.775 19.51 204.001 19.6692L204.015 19.6788C204.064 19.7101 204.122 19.7215 204.179 19.7105C204.236 19.6995 204.286 19.667 204.319 19.6199C204.352 19.5727 204.366 19.5145 204.358 19.4574C204.349 19.4002 204.319 19.3486 204.273 19.3133C204.026 19.1138 203.754 18.9465 203.464 18.8153C203.171 18.681 202.859 18.5916 202.54 18.5501C201.889 18.4612 201.225 18.5501 200.62 18.8075C200.58 18.8252 200.543 18.8507 200.512 18.8825C200.482 18.9144 200.458 18.952 200.441 18.9932C200.425 19.0345 200.417 19.0785 200.418 19.1228C200.419 19.1671 200.428 19.2108 200.446 19.2514C200.482 19.3334 200.548 19.398 200.631 19.4307C200.672 19.447 200.716 19.4549 200.761 19.4542C200.805 19.4534 200.848 19.4439 200.889 19.4262L200.908 19.4174L200.927 19.4058Z" fill="#0C0C0C"/>
<path d="M200.627 9.47166C201.053 7.42982 200.275 5.53961 198.89 5.24977C197.505 4.95993 196.037 6.38022 195.611 8.42206C195.185 10.4639 195.963 12.3541 197.348 12.6439C198.733 12.9338 200.201 11.5135 200.627 9.47166Z" fill="#0C0C0C"/>
<path d="M180.185 63.3751C180.547 67.6341 183.113 94.2065 183.462 99.4527H230.618C230.889 94.7211 232.105 74.0312 233.133 64.7772C234.114 55.9477 235.488 51.9298 234.359 49.1861C232.366 44.3466 226.025 42.1857 221.73 41.6032C219.108 41.2476 215.164 40.9929 215.164 40.9929C215.164 40.9929 214.527 36.7427 206.564 37.1193C195.724 37.6305 196.751 40.9929 196.698 40.9929C194.941 40.9929 185.383 42.272 182.992 43.8323C179.617 46.036 178.619 49.0395 178.579 51.7988C178.534 54.9766 179.776 58.5439 180.185 63.3751Z" fill="#E6E6E6"/>
<path d="M182.574 88.9826C182.54 88.9827 182.508 88.9702 182.483 88.9475C182.458 88.9248 182.442 88.8935 182.439 88.8599L180.653 68.3936C180.65 68.358 180.661 68.3227 180.684 68.2954C180.707 68.268 180.739 68.2509 180.775 68.2478C180.792 68.246 180.81 68.2477 180.827 68.2529C180.844 68.2581 180.86 68.2667 180.873 68.2781C180.887 68.2895 180.898 68.3036 180.906 68.3194C180.914 68.3352 180.919 68.3525 180.92 68.3702L182.707 88.8365C182.71 88.872 182.699 88.9073 182.676 88.9345C182.653 88.9618 182.62 88.9789 182.585 88.9821C182.581 88.9825 182.578 88.9826 182.574 88.9826V88.9826Z" fill="#0C0C0C"/>
<path d="M185.993 100.871L192.468 95.6089L191.379 95.9175C191.025 96.01 190.649 95.9646 190.328 95.7904C190.006 95.6162 189.763 95.3263 189.646 94.9792C189.592 94.7979 189.576 94.6076 189.598 94.4198C189.62 94.232 189.68 94.0507 189.774 93.8869C189.869 93.7231 189.995 93.5803 190.147 93.4671C190.298 93.3539 190.471 93.2728 190.654 93.2287L204.257 89.915L205.427 94.2547C205.791 95.6025 205.744 97.0283 205.294 98.3495C204.843 99.6706 204.009 100.827 202.898 101.67L197.858 105.48C197.599 105.683 197.28 105.79 196.952 105.784C196.624 105.777 196.308 105.658 196.058 105.445C195.836 105.248 195.683 104.986 195.62 104.695C195.558 104.405 195.59 104.102 195.712 103.831C195.69 103.825 195.671 103.813 195.655 103.796C195.642 103.779 195.632 103.76 195.628 103.739C195.624 103.718 195.625 103.697 195.631 103.677L194.702 104.381C194.416 104.608 194.053 104.717 193.689 104.687C193.325 104.657 192.986 104.489 192.74 104.218C192.529 103.967 192.413 103.651 192.412 103.323C192.411 102.996 192.525 102.679 192.735 102.428C192.72 102.425 192.706 102.42 192.693 102.413L192.312 102.703C192.054 102.906 191.734 103.013 191.406 103.007C191.078 103 190.762 102.881 190.512 102.668C190.243 102.429 190.077 102.096 190.048 101.736C190.019 101.377 190.13 101.021 190.358 100.742C190.353 100.735 190.348 100.726 190.345 100.717L187.648 102.909C187.515 103.017 187.361 103.098 187.196 103.147C187.031 103.197 186.858 103.213 186.687 103.195C186.515 103.177 186.349 103.125 186.198 103.043C186.047 102.961 185.913 102.85 185.805 102.716C185.696 102.582 185.615 102.428 185.566 102.263C185.517 102.098 185.501 101.924 185.519 101.753C185.537 101.581 185.588 101.415 185.67 101.264C185.752 101.112 185.863 100.978 185.997 100.869L185.993 100.871Z" fill="#E98862"/>
<path opacity="0.2" d="M190.503 100.795C190.517 100.79 190.53 100.783 190.542 100.773L193.136 98.614C193.15 98.603 193.16 98.5896 193.168 98.5744C193.176 98.5592 193.181 98.5426 193.183 98.5255C193.184 98.5084 193.183 98.4911 193.178 98.4747C193.172 98.4583 193.164 98.4431 193.153 98.4299C193.142 98.4167 193.129 98.4058 193.114 98.3978C193.098 98.3898 193.082 98.3849 193.065 98.3834C193.048 98.3818 193.03 98.3836 193.014 98.3887C192.998 98.3938 192.983 98.4021 192.969 98.4131L190.375 100.572C190.352 100.591 190.336 100.619 190.33 100.649C190.325 100.679 190.33 100.71 190.345 100.737C190.361 100.764 190.385 100.784 190.413 100.795C190.442 100.805 190.474 100.806 190.503 100.795Z" fill="#0A0A0A"/>
<path opacity="0.2" d="M192.792 102.426C192.806 102.421 192.819 102.413 192.831 102.404L194.883 100.723C194.91 100.701 194.927 100.67 194.93 100.635C194.934 100.601 194.923 100.566 194.901 100.539C194.879 100.512 194.848 100.495 194.813 100.492C194.779 100.488 194.744 100.499 194.718 100.521L192.665 102.201C192.641 102.221 192.625 102.248 192.619 102.279C192.614 102.309 192.619 102.34 192.634 102.367C192.649 102.394 192.673 102.415 192.702 102.425C192.731 102.436 192.763 102.436 192.792 102.426V102.426Z" fill="#0A0A0A"/>
<path opacity="0.2" d="M195.795 103.836C195.81 103.83 195.824 103.822 195.836 103.812L196.787 102.995C196.8 102.984 196.811 102.971 196.818 102.955C196.826 102.94 196.831 102.923 196.832 102.906C196.833 102.889 196.831 102.872 196.826 102.856C196.821 102.839 196.812 102.824 196.801 102.811C196.79 102.798 196.776 102.787 196.761 102.78C196.746 102.772 196.729 102.767 196.712 102.766C196.695 102.765 196.678 102.767 196.661 102.772C196.645 102.777 196.63 102.786 196.617 102.797L195.666 103.614C195.643 103.633 195.628 103.661 195.623 103.691C195.618 103.721 195.623 103.752 195.639 103.778C195.654 103.805 195.678 103.825 195.707 103.835C195.735 103.846 195.767 103.846 195.795 103.836V103.836Z" fill="#0A0A0A"/>
<path d="M243.222 87.9828L243.172 87.762L234.565 49.6318L217.537 53.4873L224.255 83.2504L197.344 89.8737L200.656 105.083L236.518 98.2319C236.599 98.216 236.718 98.1918 236.8 98.1733C237.89 97.9265 238.92 97.4672 239.833 96.8216C240.745 96.1759 241.522 95.3565 242.118 94.4103C242.714 93.464 243.119 92.4093 243.308 91.3065C243.498 90.2037 243.468 89.0743 243.222 87.9828V87.9828Z" fill="#E6E6E6"/>
<path d="M197.214 89.9025C197.207 89.8684 197.213 89.8328 197.232 89.8033C197.25 89.7738 197.279 89.7527 197.313 89.7443L224.105 83.1536L219.749 63.8827C219.744 63.8651 219.742 63.8468 219.745 63.8287C219.747 63.8106 219.753 63.7932 219.762 63.7776C219.772 63.7619 219.784 63.7483 219.799 63.7376C219.814 63.7269 219.83 63.7193 219.848 63.7152C219.866 63.7112 219.884 63.7108 219.902 63.7141C219.92 63.7174 219.937 63.7243 219.952 63.7344C219.967 63.7445 219.98 63.7576 219.99 63.7729C220 63.7881 220.007 63.8053 220.01 63.8232L224.396 83.223C224.404 83.2575 224.398 83.2938 224.379 83.324C224.361 83.3543 224.331 83.3759 224.297 83.3844L197.503 89.9751C197.503 89.9751 197.683 90.7596 197.733 91.0243C197.737 91.0587 197.728 91.0934 197.706 91.1206C197.685 91.1478 197.653 91.1653 197.619 91.1693C197.584 91.1733 197.55 91.1634 197.523 91.1419C197.496 91.1203 197.478 91.0889 197.474 91.0544C197.412 90.7641 197.214 89.9025 197.214 89.9025Z" fill="#0C0C0C"/>
<path d="M198.261 111.141L187.914 79.2842C187.732 78.7244 187.378 78.2365 186.903 77.8906C186.427 77.5446 185.854 77.3583 185.267 77.3584H143.112C142.673 77.3584 142.24 77.4625 141.848 77.6624C141.456 77.8622 141.118 78.1521 140.86 78.5082C140.601 78.8643 140.431 79.2766 140.362 79.7113C140.294 80.1461 140.329 80.5909 140.465 81.0094L150.812 112.867C150.994 113.426 151.348 113.914 151.824 114.26C152.299 114.606 152.872 114.792 153.459 114.792H195.614C196.053 114.792 196.486 114.688 196.878 114.488C197.269 114.288 197.608 113.999 197.866 113.642C198.124 113.286 198.295 112.874 198.363 112.439C198.432 112.005 198.397 111.56 198.261 111.141V111.141Z" fill="#003646"/>
<path opacity="0.2" d="M198.261 111.141L187.914 79.2842C187.732 78.7244 187.378 78.2365 186.903 77.8906C186.427 77.5446 185.854 77.3583 185.267 77.3584H143.112C142.673 77.3584 142.24 77.4625 141.848 77.6624C141.456 77.8622 141.118 78.1521 140.86 78.5082C140.601 78.8643 140.431 79.2766 140.362 79.7113C140.294 80.1461 140.329 80.5909 140.465 81.0094L150.812 112.867C150.994 113.426 151.348 113.914 151.824 114.26C152.299 114.606 152.872 114.792 153.459 114.792H195.614C196.053 114.792 196.486 114.688 196.878 114.488C197.269 114.288 197.608 113.999 197.866 113.642C198.124 113.286 198.295 112.874 198.363 112.439C198.432 112.005 198.397 111.56 198.261 111.141V111.141Z" fill="white"/>
<path d="M168.148 100.503C170.589 100.503 172.569 98.5203 172.569 96.0747C172.569 93.6291 170.589 91.6465 168.148 91.6465C165.706 91.6465 163.727 93.6291 163.727 96.0747C163.727 98.5203 165.706 100.503 168.148 100.503Z" fill="white"/>
<path d="M172.76 209.625H26.5011C22.3649 209.625 19 206.256 19 202.116V124.342C19 120.202 22.3649 116.833 26.5011 116.833H172.76C176.896 116.833 180.261 120.202 180.261 124.342V202.116C180.261 206.256 176.896 209.625 172.76 209.625V209.625Z" fill="white"/>
<path d="M59 163.833C56.75 163.802 54.7344 163.255 52.9531 162.192C51.1406 161.13 49.7031 159.692 48.6406 157.88C47.5781 156.099 47.0312 154.083 47 151.833C47.0312 149.583 47.5781 147.567 48.6406 145.786C49.7031 143.974 51.1406 142.536 52.9531 141.474C54.7344 140.411 56.75 139.864 59 139.833C61.25 139.864 63.2656 140.411 65.0469 141.474C66.8594 142.536 68.2969 143.974 69.3594 145.786C70.4219 147.567 70.9688 149.583 71 151.833C70.9688 154.083 70.4219 156.099 69.3594 157.88C68.2969 159.692 66.8594 161.13 65.0469 162.192C63.2656 163.255 61.25 163.802 59 163.833ZM64.2969 149.63C64.7344 149.099 64.7344 148.567 64.2969 148.036C63.7656 147.599 63.2344 147.599 62.7031 148.036L57.5 153.239L55.2969 151.036C54.7656 150.599 54.2344 150.599 53.7031 151.036C53.2656 151.567 53.2656 152.099 53.7031 152.63L56.7031 155.63C57.2344 156.067 57.7656 156.067 58.2969 155.63L64.2969 149.63Z" fill="#44A93B"/>
<path fill-rule="evenodd" clip-rule="evenodd" d="M164.301 135.343C164.443 134.926 164.614 134.525 164.811 134.149C164.868 134.037 164.936 133.916 165.022 133.77C165.106 133.621 165.176 133.506 165.245 133.397C165.47 133.044 165.732 132.695 166.023 132.362C166.405 131.924 166.844 131.516 167.325 131.148L167.383 131.104V128.028C166.514 128.691 165.729 129.42 165.031 130.219C164.518 130.806 164.047 131.427 163.627 132.087C163.486 132.309 163.353 132.535 163.225 132.76C163.092 132.985 162.964 133.212 162.843 133.446C162.48 134.14 162.177 134.857 161.925 135.596C161.582 136.598 161.342 137.642 161.203 138.725L163.888 137.178L163.901 137.076C163.978 136.477 164.113 135.894 164.301 135.343" fill="#4D9744"/>
<path fill-rule="evenodd" clip-rule="evenodd" d="M168.053 131.311C168.452 131.634 168.821 131.987 169.149 132.362C169.439 132.694 169.701 133.042 169.927 133.399C169.998 133.51 170.069 133.628 170.151 133.772C170.233 133.913 170.3 134.034 170.361 134.15C170.558 134.526 170.729 134.927 170.87 135.343C171.059 135.894 171.193 136.477 171.271 137.076L171.282 137.159L174 138.725C173.86 137.642 173.621 136.598 173.278 135.596C173.026 134.857 172.722 134.14 172.36 133.446C172.238 133.212 172.11 132.985 171.978 132.76C171.851 132.535 171.717 132.309 171.575 132.087C171.156 131.427 170.685 130.806 170.172 130.219C169.474 129.42 168.69 128.691 167.82 128.028V131.129L167.845 131.148C167.915 131.202 167.985 131.256 168.053 131.311Z" fill="#0088AF"/>
<path fill-rule="evenodd" clip-rule="evenodd" d="M169.284 137.987C168.853 138.074 168.42 138.127 167.998 138.145C167.88 138.151 167.761 138.153 167.632 138.153H167.463C167.348 138.153 167.237 138.152 167.13 138.147C166.706 138.129 166.272 138.078 165.844 137.995C165.362 137.901 164.878 137.759 164.399 137.577L161.523 139.245C162.534 139.665 163.56 139.978 164.602 140.182C165.367 140.331 166.141 140.425 166.924 140.457C167.187 140.467 167.45 140.471 167.71 140.468C167.97 140.47 168.231 140.465 168.495 140.454C169.277 140.419 170.05 140.322 170.817 140.168C171.857 139.96 172.88 139.644 173.889 139.221L170.895 137.499C170.366 137.715 169.824 137.88 169.284 137.987" fill="#965A25"/>
<path fill-rule="evenodd" clip-rule="evenodd" d="M169.49 135.27H169.652L169.59 135.12C169.511 134.929 169.427 134.749 169.341 134.584C169.289 134.485 169.232 134.382 169.161 134.26C169.086 134.13 169.029 134.036 168.971 133.946C168.908 133.845 168.834 133.737 168.745 133.614L168.713 133.569H168.658H166.515H166.459L166.427 133.614C166.339 133.736 166.264 133.845 166.2 133.946C166.135 134.048 166.078 134.143 166.016 134.253L166.007 134.268C165.936 134.388 165.882 134.485 165.837 134.573L165.833 134.58C165.747 134.747 165.662 134.928 165.582 135.12L165.52 135.27H165.682H169.49ZM169.992 136.419C169.948 136.211 169.895 136.002 169.833 135.798L169.81 135.721H169.73H169.014H168.94L168.914 135.791L168.645 136.484L168.586 136.636L168.748 136.632C168.914 136.627 169.748 136.602 169.919 136.544L170.009 136.513L169.992 136.419ZM166.228 135.721L166.255 135.791L166.524 136.484L166.582 136.635L166.421 136.632C166.178 136.627 165.375 136.609 165.247 136.566L165.156 136.536L165.175 136.442C165.22 136.226 165.275 136.009 165.339 135.798L165.362 135.721H165.442H166.154H166.228Z" fill="#575B5D"/>
<path d="M172.76 209.233H26.5011C22.3649 209.233 19 205.864 19 201.724V123.95C19 119.81 22.3649 116.441 26.5011 116.441H172.76C176.896 116.441 180.261 119.81 180.261 123.95V201.724C180.261 205.864 176.896 209.233 172.76 209.233V209.233ZM26.5011 117.695C23.0558 117.695 20.2526 120.501 20.2526 123.95V201.724C20.2526 205.173 23.0558 207.979 26.5011 207.979H172.76C176.205 207.979 179.008 205.173 179.008 201.724V123.95C179.008 120.501 176.205 117.695 172.76 117.695H26.5011Z" fill="#3F3D56"/>
<path d="M161.473 125.847C162.51 125.847 163.352 125.005 163.352 123.966C163.352 122.927 162.51 122.085 161.473 122.085C160.435 122.085 159.594 122.927 159.594 123.966C159.594 125.005 160.435 125.847 161.473 125.847Z" fill="#3F3D56"/>
<path d="M166.481 125.847C167.518 125.847 168.359 125.005 168.359 123.966C168.359 122.927 167.518 122.085 166.481 122.085C165.443 122.085 164.602 122.927 164.602 123.966C164.602 125.005 165.443 125.847 166.481 125.847Z" fill="#3F3D56"/>
<path d="M171.492 125.847C172.53 125.847 173.371 125.005 173.371 123.966C173.371 122.927 172.53 122.085 171.492 122.085C170.455 122.085 169.613 122.927 169.613 123.966C169.613 125.005 170.455 125.847 171.492 125.847Z" fill="#3F3D56"/>
<path d="M100.468 154.833C100.21 154.833 100 155.255 100 155.773C100 156.026 100.049 156.26 100.137 156.433C100.226 156.616 100.342 156.714 100.468 156.714H170.532C170.79 156.714 171 156.292 171 155.773C171 155.521 170.951 155.287 170.863 155.114C170.774 154.931 170.658 154.833 170.532 154.833H100.468Z" fill="#CCE7EF"/>
<path d="M100.468 157.714C100.21 157.714 100 158.136 100 158.654C100 158.907 100.049 159.141 100.137 159.314C100.226 159.497 100.342 159.595 100.468 159.595H170.532C170.79 159.595 171 159.173 171 158.654C171 158.401 170.951 158.168 170.863 157.995C170.774 157.812 170.658 157.714 170.532 157.714H100.468Z" fill="#CCE7EF"/>
<path d="M100.468 160.595C100.21 160.595 100 161.043 100 161.595C100 161.864 100.049 162.112 100.137 162.296C100.226 162.491 100.342 162.595 100.468 162.595H170.532C170.79 162.595 171 162.146 171 161.595C171 161.326 170.951 161.077 170.863 160.894C170.774 160.699 170.658 160.595 170.532 160.595H100.468Z" fill="#CCE7EF"/>
<path d="M102.455 180.833C102.204 180.833 102 181.255 102 181.773C102 182.026 102.047 182.26 102.133 182.433C102.219 182.616 102.333 182.714 102.455 182.714H170.545C170.796 182.714 171 182.292 171 181.773C171 181.521 170.953 181.287 170.867 181.114C170.78 180.931 170.667 180.833 170.545 180.833H102.455Z" fill="#CCE7EF"/>
<path d="M102.455 183.714C102.204 183.714 102 184.136 102 184.654C102 184.907 102.047 185.141 102.133 185.314C102.219 185.497 102.333 185.595 102.455 185.595H170.545C170.796 185.595 171 185.173 171 184.654C171 184.401 170.953 184.168 170.867 183.995C170.78 183.812 170.667 183.714 170.545 183.714H102.455Z" fill="#CCE7EF"/>
<path d="M102.455 186.595C102.204 186.595 102 187.043 102 187.595C102 187.864 102.047 188.112 102.133 188.296C102.219 188.491 102.333 188.595 102.455 188.595H170.545C170.796 188.595 171 188.146 171 187.595C171 187.326 170.953 187.077 170.867 186.894C170.78 186.699 170.667 186.595 170.545 186.595H102.455Z" fill="#CCE7EF"/>
<path d="M168.571 148.833H156.429C155.089 148.833 154 147.936 154 146.833C154 145.73 155.089 144.833 156.429 144.833H168.571C169.911 144.833 171 145.73 171 146.833C171 147.936 169.911 148.833 168.571 148.833Z" fill="#CCE7EF"/>
<path d="M168.571 176.833H156.429C155.089 176.833 154 175.936 154 174.833C154 173.73 155.089 172.833 156.429 172.833H168.571C169.911 172.833 171 173.73 171 174.833C171 175.936 169.911 176.833 168.571 176.833Z" fill="#CCE7EF"/>
<path d="M24.8553 126.547C25.8799 126.547 26.7105 125.716 26.7105 124.69C26.7105 123.665 25.8799 122.833 24.8553 122.833C23.8306 122.833 23 123.665 23 124.69C23 125.716 23.8306 126.547 24.8553 126.547Z" fill="#D14242"/>
<path d="M29.8045 126.547C30.8291 126.547 31.6597 125.716 31.6597 124.69C31.6597 123.665 30.8291 122.833 29.8045 122.833C28.7798 122.833 27.9492 123.665 27.9492 124.69C27.9492 125.716 28.7798 126.547 29.8045 126.547Z" fill="#F7C23C"/>
<path d="M34.91 126.825C35.9346 126.825 36.7652 125.993 36.7652 124.968C36.7652 123.942 35.9346 123.11 34.91 123.11C33.8853 123.11 33.0547 123.942 33.0547 124.968C33.0547 125.993 33.8853 126.825 34.91 126.825Z" fill="#44A93B"/>
<rect x="41" y="167.834" width="36" height="4" rx="2" fill="#CCE7EF"/>
<rect x="33" y="174.834" width="56" height="4" rx="2" fill="#CCE7EF"/>
</svg>
