<svg width="73" height="73" viewBox="0 0 73 73" fill="none" xmlns="http://www.w3.org/2000/svg">
<rect width="72.502" height="72.502" rx="36.251" fill="#F7C23C"/>
<path d="M50.5116 30.8064C51.522 31.3575 52.3257 32.1383 52.9227 33.1486C53.5657 34.159 53.8872 35.2842 53.8872 36.5242V40.9331C53.8412 42.6324 53.0834 43.8953 51.6138 44.722V48.6487C51.6138 49.2916 51.4071 49.8198 50.9938 50.2331C50.6264 50.6465 50.1212 50.8531 49.4783 50.8531C48.8353 50.8531 48.3071 50.6465 47.8938 50.2331C47.4805 49.8198 47.2738 49.2916 47.2738 48.6487V45.342H25.2293V48.6487C25.1834 49.2916 24.9308 49.8198 24.4715 50.2331C24.0122 50.6465 23.4841 50.8531 22.8871 50.8531C22.29 50.8531 21.7848 50.6465 21.3715 50.2331C20.9582 49.8198 20.7515 49.2916 20.7515 48.6487V44.722C19.4196 43.8953 18.7078 42.6324 18.6159 40.9331V36.5242C18.6159 35.2842 18.9374 34.159 19.5804 33.1486C20.1774 32.1383 20.9811 31.3575 21.9915 30.8064L24.816 23.7797C25.2752 22.6316 26.01 21.713 27.0204 21.0242C28.0308 20.3353 29.156 19.9908 30.396 19.9908H42.1071C43.3471 19.9908 44.4723 20.3353 45.4827 21.0242C46.4931 21.713 47.2279 22.6316 47.6871 23.7797L50.5116 30.8064ZM27.8471 25.0197L25.9182 29.9108H46.5849L44.656 25.0197C44.1508 23.9175 43.3012 23.3434 42.1071 23.2975H30.396C29.2019 23.3434 28.3523 23.9175 27.8471 25.0197ZM49.4783 42.0353C50.1671 41.9894 50.5346 41.622 50.5805 40.9331V38.7287H47.8249C46.8145 38.6368 46.2634 38.0857 46.1716 37.0753C46.2634 36.0649 46.8145 35.5138 47.8249 35.422H50.3738C49.8227 34.0442 48.7894 33.3094 47.2738 33.2175H25.2293C23.7137 33.3094 22.6804 34.0442 22.1293 35.422H24.6782C25.6885 35.5138 26.2397 36.0649 26.3315 37.0753C26.2397 38.0857 25.6885 38.6368 24.6782 38.7287H21.9226V40.9331C21.9685 41.622 22.3359 41.9894 23.0248 42.0353H31.8426V39.8309C31.8426 39.1879 32.0493 38.6598 32.4626 38.2464C32.876 37.8331 33.4041 37.6264 34.0471 37.6264H38.456C39.099 37.6264 39.6271 37.8331 40.0404 38.2464C40.4538 38.6598 40.6604 39.1879 40.6604 39.8309V42.0353H49.4783Z" fill="white"/>
</svg>
