<svg width="150" height="151" viewBox="0 0 150 151" fill="none" xmlns="http://www.w3.org/2000/svg">
<path d="M103.481 110.271H109.238C110.831 110.271 112.119 108.984 112.119 107.393V101.301H114.999V92.9948H40.1338V101.301H43.0136V107.393C43.0136 108.984 44.2997 110.271 45.8945 110.271H51.6483C53.2416 110.271 54.5301 108.984 54.5301 107.393V101.301H100.602V107.393C100.602 108.984 101.89 110.271 103.481 110.271ZM114.999 76.7307C114.999 76.7307 113.913 76.3712 111.974 75.83L102.718 51.129C102.718 51.129 83.4943 47.9307 77.5704 47.9307C77.019 47.9307 76.3523 47.9585 75.5967 48.0088C76.3318 49.7965 76.8275 51.7068 77.04 53.7016C77.2256 53.6962 77.4049 53.6928 77.5704 53.6928C82.0138 53.6928 94.0896 55.5611 98.4943 56.265L105.082 73.8425C105.082 73.8425 87.6226 70.9734 77.5665 70.9734C75.4301 70.9734 72.9586 71.1038 70.3923 71.3075C66.6694 74.731 61.7068 76.8254 56.2626 76.8254C52.295 76.8254 48.4852 75.725 45.1594 73.6301L43.6051 74.6446L43.1607 75.83C42.0123 76.1494 41.1732 76.4034 40.6711 76.5597L40.1328 76.9109V91.3967H114.998V76.7307H114.999ZM51.1638 88.1905C48.4818 88.1905 46.3106 86.0189 46.3106 83.3383C46.3106 80.6578 48.4813 78.4852 51.1638 78.4852C53.8414 78.4852 56.016 80.6573 56.016 83.3383C56.016 86.0184 53.8419 88.1905 51.1638 88.1905ZM103.969 88.1905C101.291 88.1905 99.1181 86.0189 99.1181 83.3383C99.1181 80.6578 101.291 78.4852 103.969 78.4852C106.651 78.4852 108.821 80.6573 108.821 83.3383C108.821 86.0184 106.651 88.1905 103.969 88.1905Z" fill="#272C2E"/>
<rect x="19" y="17.834" width="52" height="52" rx="26" fill="#006D8C"/>
<path d="M39.1641 46.1676C39.8084 46.1676 40.3307 45.6453 40.3307 45.001C40.3307 44.3566 39.8084 43.8343 39.1641 43.8343C38.5197 43.8343 37.9974 44.3566 37.9974 45.001C37.9974 45.6453 38.5197 46.1676 39.1641 46.1676Z" fill="white"/>
<path d="M44.9974 45.001C44.9974 45.6453 44.4751 46.1676 43.8307 46.1676C43.1864 46.1676 42.6641 45.6453 42.6641 45.001C42.6641 44.3566 43.1864 43.8343 43.8307 43.8343C44.4751 43.8343 44.9974 44.3566 44.9974 45.001Z" fill="white"/>
<path d="M48.4974 46.1676C49.1417 46.1676 49.6641 45.6453 49.6641 45.001C49.6641 44.3566 49.1417 43.8343 48.4974 43.8343C47.8531 43.8343 47.3307 44.3566 47.3307 45.001C47.3307 45.6453 47.8531 46.1676 48.4974 46.1676Z" fill="white"/>
<path d="M40.3307 49.6676C40.3307 50.312 39.8084 50.8343 39.1641 50.8343C38.5197 50.8343 37.9974 50.312 37.9974 49.6676C37.9974 49.0233 38.5197 48.501 39.1641 48.501C39.8084 48.501 40.3307 49.0233 40.3307 49.6676Z" fill="white"/>
<path d="M43.8307 50.8343C44.4751 50.8343 44.9974 50.312 44.9974 49.6676C44.9974 49.0233 44.4751 48.501 43.8307 48.501C43.1864 48.501 42.6641 49.0233 42.6641 49.6676C42.6641 50.312 43.1864 50.8343 43.8307 50.8343Z" fill="white"/>
<path fill-rule="evenodd" clip-rule="evenodd" d="M40.3307 32.1676C40.3307 31.5233 39.8084 31.001 39.1641 31.001C38.5197 31.001 37.9974 31.5233 37.9974 32.1676V33.3343H35.6641C33.7311 33.3343 32.1641 34.9013 32.1641 36.8343V52.001C32.1641 53.934 33.7311 55.501 35.6641 55.501H54.3307C56.2637 55.501 57.8307 53.934 57.8307 52.001V36.8343C57.8307 34.9013 56.2637 33.3343 54.3307 33.3343H51.9974V32.1676C51.9974 31.5233 51.4751 31.001 50.8307 31.001C50.1864 31.001 49.6641 31.5233 49.6641 32.1676V33.3343H40.3307V32.1676ZM34.4974 36.8343C34.4974 36.19 35.0197 35.6676 35.6641 35.6676H54.3307C54.9751 35.6676 55.4974 36.19 55.4974 36.8343V39.1676H34.4974V36.8343ZM34.4974 41.501H55.4974V52.001C55.4974 52.6453 54.9751 53.1676 54.3307 53.1676H35.6641C35.0197 53.1676 34.4974 52.6453 34.4974 52.001V41.501Z" fill="white"/>
</svg>
