<svg width="72" height="72" viewBox="0 0 72 72" fill="none" xmlns="http://www.w3.org/2000/svg">
<rect width="72" height="72" rx="36" fill="#4D9744"/>
<path d="M46.9472 22.1351C48.1786 22.1807 49.2048 22.614 50.0258 23.4349C50.8467 24.2559 51.28 25.2821 51.3256 26.5135V48.4054C51.28 49.6368 50.8467 50.663 50.0258 51.4839C49.2048 52.3049 48.1786 52.7382 46.9472 52.7838H25.0553C23.8239 52.7382 22.7977 52.3049 21.9768 51.4839C21.1558 50.663 20.7225 49.6368 20.6769 48.4054V26.5135C20.7225 25.2821 21.1558 24.2559 21.9768 23.4349C22.7977 22.614 23.8239 22.1807 25.0553 22.1351H27.7918V19.3986C27.883 18.3952 28.4303 17.8479 29.4337 17.7567C30.4371 17.8479 30.9844 18.3952 31.0756 19.3986V22.1351H40.9269V19.3986C40.9269 18.9425 41.1094 18.5549 41.4742 18.2356C41.7935 17.9164 42.1812 17.7567 42.6372 17.7567C43.595 17.8479 44.1195 18.3952 44.2107 19.3986V22.1351H46.9472ZM48.0418 30.8919H37.6432V38.0067H48.0418V30.8919ZM34.3594 30.8919H23.9607V38.0067H34.3594V30.8919ZM23.9607 48.4054C24.0063 49.0895 24.3712 49.4544 25.0553 49.5H34.3594V41.2905H23.9607V48.4054ZM46.9472 49.5C47.6313 49.4544 47.9962 49.0895 48.0418 48.4054V41.2905H37.6432V49.5H46.9472Z" fill="white"/>
</svg>
