<svg width="73" height="73" viewBox="0 0 73 73" fill="none" xmlns="http://www.w3.org/2000/svg">
<rect y="0.166016" width="72.085" height="72.085" rx="36.0425" fill="#0088AF"/>
<path d="M36.0427 19.0237C39.1021 19.0693 41.8646 19.8228 44.3304 21.2839C46.7961 22.7451 48.7596 24.7086 50.2208 27.1743C51.6363 29.6401 52.3669 32.4026 52.4125 35.462C52.3669 38.5213 51.6363 41.2839 50.2208 43.7496C48.7596 46.2154 46.7961 48.1788 44.3304 49.64C41.8646 51.1012 39.1021 51.8546 36.0427 51.9003C32.9834 51.8546 30.2208 51.1012 27.7551 49.64C25.2893 48.1788 23.3259 46.2154 21.8647 43.7496C20.4035 41.2839 19.6501 38.5213 19.6044 35.462C19.6501 32.4026 20.4035 29.6401 21.8647 27.1743C23.3259 24.7086 25.2893 22.7451 27.7551 21.2839C30.2208 19.8228 32.9834 19.0693 36.0427 19.0237ZM47.4125 28.8867C46.1797 26.7405 44.4674 25.0739 42.2756 23.8867C43.0518 25.3479 43.6454 27.0145 44.0564 28.8867H47.4125ZM41.5222 35.462C41.5222 34.3204 41.4537 33.2245 41.3167 32.1743H30.7688C30.6318 33.2245 30.5633 34.3204 30.5633 35.462C30.5633 36.6035 30.6318 37.6994 30.7688 38.7496H41.3167C41.4537 37.6994 41.5222 36.6035 41.5222 35.462ZM36.0427 48.6126C36.819 48.6126 37.6409 48.019 38.5085 46.8318C39.3304 45.6902 40.0381 44.0921 40.6318 42.0373H31.4537C32.0473 44.0921 32.7551 45.6902 33.577 46.8318C34.4446 48.019 35.2665 48.6126 36.0427 48.6126ZM31.4537 28.8867H40.6318C40.0381 26.8319 39.3304 25.2337 38.5085 24.0922C37.6409 22.9049 36.819 22.3113 36.0427 22.3113C35.2665 22.3113 34.4446 22.9049 33.577 24.0922C32.7551 25.2337 32.0473 26.8319 31.4537 28.8867ZM29.8099 23.8867C27.6181 25.0739 25.9058 26.7405 24.6729 28.8867H28.0291C28.44 27.0145 29.0336 25.3479 29.8099 23.8867ZM23.303 32.1743C23.0291 33.2245 22.8921 34.3204 22.8921 35.462C22.8921 36.6035 23.0291 37.6994 23.303 38.7496H27.4811C27.3441 37.6994 27.2756 36.6035 27.2756 35.462C27.2756 34.3204 27.3441 33.2245 27.4811 32.1743H23.303ZM24.6729 42.0373C25.9058 44.1834 27.6181 45.8501 29.8099 47.0373C29.0336 45.5761 28.44 43.9094 28.0291 42.0373H24.6729ZM42.2756 47.0373C44.4674 45.8501 46.1797 44.1834 47.4125 42.0373H44.0564C43.6454 43.9094 43.0518 45.5761 42.2756 47.0373ZM48.7824 38.7496C49.0564 37.6994 49.1934 36.6035 49.1934 35.462C49.1934 34.3204 49.0564 33.2245 48.7824 32.1743H44.6043C44.7413 33.2245 44.8098 34.3204 44.8098 35.462C44.8098 36.6035 44.7413 37.6994 44.6043 38.7496H48.7824Z" fill="white"/>
</svg>
